<?xml version="1.0" encoding="utf-8"?>
<!-- Generator: Adobe Illustrator 24.1.0, SVG Export Plug-In . SVG Version: 6.00 Build 0)  -->
<svg version="1.1" id="Layer_1" xmlns="http://www.w3.org/2000/svg" xmlns:xlink="http://www.w3.org/1999/xlink" x="0px" y="0px"
	 viewBox="0 0 2000 2000" style="enable-background:new 0 0 2000 2000;" xml:space="preserve">
<style type="text/css">
	.st0{fill:#646464;}
</style>
<path class="st0" d="M616.1,1109.1c0-4-3.3-7.4-7.4-7.4h-1c-72.8,0-145.7,0.1-218.5-0.1c-12.6,0-25.4-0.3-37.8-2.4
	c-27.6-4.6-48.1-28-50.4-55.7c-0.7-8.9-1.2-17.8-1.2-26.8c-0.1-51.4-0.1-102.9,0.1-154.3c0.1-13.3,0.4-26.6,6-39.1
	c10.1-22.5,27.7-35.2,52.2-37.7c10.7-1.1,21.5-1.3,32.3-1.3c72.4-0.1,144.9-0.1,217.3-0.1h1c4,0,7.4-3.3,7.4-7.4v-0.7
	c0-149.1-0.1-298.2,0.1-447.3c0-13,0.2-26.2,2.3-39.1c4.7-28.2,28.1-48.6,56.7-50.7c9.1-0.7,18.2-1.1,27.4-1.2
	c51.3-0.1,102.5-0.1,153.8,0.1c12.8,0.1,25.8,0.4,37.9,5.8c22.9,10.2,35.6,27.9,38.1,52.6c1.1,10.7,1.3,21.5,1.3,32.3
	c0.1,409.4,0.1,818.7,0,1228.1c0,13-0.3,26.2-2.3,39.1c-4.7,27.9-28,48.5-56.1,50.6c-8.9,0.7-17.8,1.2-26.8,1.2
	c-52.1,0.1-104.1,0.1-156.3-0.1c-12.4-0.1-25-0.6-36.6-5.8c-22.9-10.2-35.6-27.9-38.1-52.6c-1.1-11.1-1.3-22.4-1.3-33.6
	c-0.1-148.5-0.1-297-0.1-445.5C616.1,1110,616.1,1109.6,616.1,1109.1z M1343,1091.8c69.1,0,138.2,0.1,207.3-0.1
	c10.8,0,21.6-0.2,32.3-1.3c24.4-2.6,42-15.2,52.2-37.7c5.5-12,5.9-25,5.9-37.8c0.2-51.9,0.2-103.7,0.1-155.5
	c0-8.9-0.5-17.9-1.2-26.8c-2.2-27.7-22.8-51.2-50.4-55.7c-12.2-2.1-24.8-2.3-37.2-2.4c-148.2-0.2-296.3-0.1-444.5-0.1
	c-9.7,0-19.5,0.4-29.2,1.1c-30.2,2.2-54,23.3-58.9,53.2c-2.1,12.6-2.3,25.6-2.3,38.4c-0.1,228.7-0.1,457.5-0.1,686.2
	c0,11,0.4,22,1.3,32.9c2.4,31.1,24.4,55.6,54.6,59.9c11.9,1.7,24,1.7,36,1.7c147,0.1,293.8,0.1,440.8,0c11,0,22-0.2,32.9-1.3
	c24.4-2.6,42-15.3,52.2-37.8c5.4-12,5.8-25,5.9-37.8c0.2-52.7,0.2-105.3,0.1-158c0-8.1-0.5-16.2-1.2-24.2
	c-2.2-27.7-22.9-51.1-50.5-55.7c-12.2-2.1-24.8-2.3-37.2-2.3c-69.9-0.2-139.9-0.1-209.8-0.1l0,0c-4,0-7.4-3.3-7.4-7.4V1099
	c0-4,3.3-7.4,7.4-7.4L1343,1091.8L1343,1091.8z"/>
</svg>
