<?xml version="1.0" encoding="utf-8"?>
<!-- Generator: Adobe Illustrator 24.1.0, SVG Export Plug-In . SVG Version: 6.00 Build 0)  -->
<svg version="1.1" id="Layer_1" xmlns="http://www.w3.org/2000/svg" xmlns:xlink="http://www.w3.org/1999/xlink" x="0px" y="0px"
	 viewBox="0 0 3443.8 3443.8" style="enable-background:new 0 0 3443.8 3443.8;" xml:space="preserve">
<style type="text/css">
	.st0{fill:url(#SVGID_1_);}
	.st1{fill:#FFFFFF;}
</style>
<linearGradient id="SVGID_1_" gradientUnits="userSpaceOnUse" x1="152.0931" y1="1848.004" x2="3291.8318" y2="-1291.7351" gradientTransform="matrix(1 0 0 -1 0 2000)">
	<stop  offset="0" style="stop-color:#38D3A9"/>
	<stop  offset="1" style="stop-color:#2A80E2"/>
</linearGradient>
<path class="st0" d="M2926.2,3443.8H517.8C233,3443.8,0,3210.8,0,2926V517.6C0,232.8,233,0,517.8,0h2408.6
	c284.6,0,517.4,232.8,517.4,517.6v2408.6C3443.8,3210.8,3211,3443.8,2926.2,3443.8z"/>
<path class="st1" d="M1060.9,1909.8c0-6.9-5.7-12.7-12.7-12.7h-1.7c-125.4,0-250.9,0.2-376.2-0.2c-21.7,0-43.7-0.5-65.1-4.1
	c-47.5-7.9-82.8-48.2-86.8-95.9c-1.2-15.3-2.1-30.7-2.1-46.1c-0.2-88.5-0.2-177.2,0.2-265.7c0.2-22.9,0.7-45.8,10.3-67.3
	c17.4-38.7,47.7-60.6,89.9-64.9c18.4-1.9,37-2.2,55.6-2.2c124.7-0.2,249.5-0.2,374.2-0.2h1.7c6.9,0,12.7-5.7,12.7-12.7v-1.2
	c0-256.7-0.2-513.5,0.2-770.2c0-22.4,0.3-45.1,4-67.3c8.1-48.6,48.4-83.7,97.6-87.3c15.7-1.2,31.3-1.9,47.2-2.1
	c88.3-0.2,176.5-0.2,264.8,0.2c22,0.2,44.4,0.7,65.3,10c39.4,17.6,61.3,48,65.6,90.6c1.9,18.4,2.2,37,2.2,55.6
	c0.2,704.9,0.2,1409.7,0,2114.7c0,22.4-0.5,45.1-4,67.3c-8.1,48-48.2,83.5-96.6,87.1c-15.3,1.2-30.6,2.1-46.1,2.1
	c-89.7,0.2-179.3,0.2-269.1-0.2c-21.4-0.2-43-1-63-10c-39.4-17.6-61.3-48-65.6-90.6c-1.9-19.1-2.2-38.6-2.2-57.9
	c-0.2-255.7-0.2-511.4-0.2-767.1C1060.9,1911.3,1060.9,1910.6,1060.9,1909.8z M2312.5,1880c119,0,238,0.2,357-0.2
	c18.6,0,37.2-0.3,55.6-2.2c42-4.5,72.3-26.2,89.9-64.9c9.5-20.7,10.2-43,10.2-65.1c0.3-89.4,0.3-178.6,0.2-267.8
	c0-15.3-0.9-30.8-2.1-46.1c-3.8-47.7-39.3-88.2-86.8-95.9c-21-3.6-42.7-4-64.1-4.1c-255.2-0.3-510.2-0.2-765.4-0.2
	c-16.7,0-33.6,0.7-50.3,1.9c-52,3.8-93,40.1-101.4,91.6c-3.6,21.7-4,44.1-4,66.1c-0.2,393.8-0.2,787.8-0.2,1181.6
	c0,18.9,0.7,37.9,2.2,56.7c4.1,53.6,42,95.7,94,103.1c20.5,2.9,41.3,2.9,62,2.9c253.1,0.2,505.9,0.2,759,0c18.9,0,37.9-0.3,56.7-2.2
	c42-4.5,72.3-26.3,89.9-65.1c9.3-20.7,10-43,10.2-65.1c0.3-90.7,0.3-181.3,0.2-272.1c0-13.9-0.9-27.9-2.1-41.7
	c-3.8-47.7-39.4-88-87-95.9c-21-3.6-42.7-4-64.1-4c-120.4-0.3-240.9-0.2-361.3-0.2l0,0c-6.9,0-12.7-5.7-12.7-12.7v-386.1
	c0-6.9,5.7-12.7,12.7-12.7L2312.5,1880L2312.5,1880z"/>
</svg>
